<?xml version="1.0" encoding="UTF-8" standalone="no"?>
<!DOCTYPE svg PUBLIC "-//W3C//DTD SVG 1.1//EN" "http://www.w3.org/Graphics/SVG/1.1/DTD/svg11.dtd">
<svg width="100%" height="100%" viewBox="0 0 100 100" version="1.1" xmlns="http://www.w3.org/2000/svg" xmlns:xlink="http://www.w3.org/1999/xlink" xml:space="preserve" xmlns:serif="http://www.serif.com/" style="fill-rule:evenodd;clip-rule:evenodd;stroke-linejoin:round;stroke-miterlimit:2;">
    <g id="Vector" transform="matrix(0.899678,0,0,0.899678,-36.0368,-35.7979)">
        <path d="M95.546,150.909C126.172,150.909 151,126.081 151,95.455C151,64.828 126.172,40 95.546,40C64.919,40 40.091,64.828 40.091,95.455C40.091,126.081 64.919,150.909 95.546,150.909Z" style="fill:rgb(255,57,131);fill-rule:nonzero;"/>
    </g>
    <g id="b" transform="matrix(0.899678,0,0,0.899678,-36.0368,-35.7979)">
        <path d="M95.89,85.239C90.314,85.239 85.836,89.805 85.836,95.39C85.836,100.976 90.358,105.542 95.89,105.542C101.421,105.542 105.943,100.976 105.943,95.39C105.943,89.76 101.465,85.239 95.89,85.239ZM95.89,102.04C92.29,102.04 89.348,99.07 89.348,95.435C89.348,91.8 92.29,88.829 95.89,88.829C99.49,88.829 102.431,91.8 102.431,95.435C102.431,99.07 99.49,102.04 95.89,102.04ZM108.709,84.84C108.709,86.17 107.656,87.234 106.338,87.234C105.021,87.234 103.968,86.17 103.968,84.84C103.968,83.51 105.021,82.446 106.338,82.446C107.612,82.446 108.665,83.51 108.709,84.795L108.709,84.84ZM115.382,87.278C115.251,84.086 114.504,81.293 112.221,78.944C109.938,76.638 107.129,75.885 103.968,75.752C100.719,75.574 91.017,75.574 87.768,75.752C84.651,75.885 81.841,76.638 79.514,78.944C77.188,81.249 76.485,84.086 76.354,87.278C76.178,90.558 76.178,100.356 76.354,103.636C76.485,106.828 77.232,109.621 79.514,111.97C81.841,114.276 84.607,115.029 87.768,115.162C91.017,115.34 100.719,115.34 103.968,115.162C107.129,115.029 109.895,114.276 112.221,111.97C114.504,109.665 115.251,106.828 115.382,103.636C115.558,100.356 115.558,90.558 115.382,87.278ZM111.212,107.138C110.553,108.867 109.192,110.241 107.48,110.906C104.89,111.926 98.743,111.704 95.89,111.704C93.036,111.704 86.89,111.926 84.3,110.906C82.588,110.241 81.227,108.867 80.568,107.138C79.558,104.523 79.778,98.316 79.778,95.435C79.778,92.553 79.558,86.347 80.568,83.731C81.227,82.002 82.588,80.628 84.3,79.963C86.89,78.944 93.036,79.165 95.89,79.165C98.743,79.165 104.89,78.944 107.48,79.963C109.192,80.628 110.553,82.002 111.212,83.731C112.221,86.347 112.002,92.553 112.002,95.435C112.002,98.316 112.221,104.523 111.212,107.138Z" style="fill:white;fill-rule:nonzero;"/>
    </g>
</svg>
