<?xml version="1.0" encoding="UTF-8" standalone="no"?>
<!DOCTYPE svg PUBLIC "-//W3C//DTD SVG 1.1//EN" "http://www.w3.org/Graphics/SVG/1.1/DTD/svg11.dtd">
<svg width="100%" height="100%" viewBox="0 0 100 100" version="1.1" xmlns="http://www.w3.org/2000/svg" xmlns:xlink="http://www.w3.org/1999/xlink" xml:space="preserve" xmlns:serif="http://www.serif.com/" style="fill-rule:evenodd;clip-rule:evenodd;stroke-linejoin:round;stroke-miterlimit:2;">
    <g transform="matrix(0.898451,0,0,0.898451,50.0162,50.0964)">
        <g transform="matrix(1,0,0,1,-55.5,-55.5)">
            <g id="TIKTOK">
                <path id="Vector" d="M55.5,110.909C86.127,110.909 110.954,86.081 110.954,55.455C110.954,24.828 86.127,0 55.5,0C24.873,0 0.046,24.828 0.046,55.455C0.046,86.081 24.873,110.909 55.5,110.909Z" style="fill:rgb(150,125,255);fill-rule:nonzero;"/>
                <path id="d" d="M55.95,36.521L62.044,36.521C62.163,38.937 63.04,41.394 64.792,43.085C66.545,44.817 69.014,45.623 71.404,45.904L71.404,52.268C69.173,52.187 66.903,51.704 64.832,50.737C63.956,50.335 63.119,49.811 62.323,49.288L62.323,63.102C62.203,65.317 61.486,67.491 60.212,69.304C58.181,72.324 54.636,74.298 50.972,74.378C48.741,74.499 46.511,73.895 44.599,72.767C41.453,70.875 39.222,67.451 38.904,63.746C38.904,62.94 38.864,62.175 38.904,61.41C39.183,58.43 40.656,55.53 42.926,53.597C45.515,51.341 49.14,50.254 52.525,50.898C52.525,53.234 52.445,55.57 52.445,57.906C50.892,57.383 49.1,57.544 47.746,58.47C46.75,59.114 46.033,60.121 45.635,61.249C45.316,62.054 45.396,62.94 45.436,63.786C45.794,66.364 48.263,68.539 50.892,68.297C52.645,68.297 54.317,67.25 55.233,65.76C55.512,65.236 55.871,64.713 55.871,64.068C56.03,61.249 55.95,58.43 55.99,55.611L55.99,36.561L55.95,36.521Z" style="fill:white;fill-rule:nonzero;"/>
            </g>
        </g>
    </g>
</svg>
